<?xml version="1.0" encoding="utf-8"?>
<!-- Generator: Adobe Illustrator 23.0.2, SVG Export Plug-In . SVG Version: 6.00 Build 0)  -->
<svg version="1.1" id="Layer_1" xmlns="http://www.w3.org/2000/svg" xmlns:xlink="http://www.w3.org/1999/xlink" x="0px" y="0px"
	 viewBox="0 0 16 16" style="enable-background:new 0 0 16 16;" xml:space="preserve">
<title>Artboard 47</title>
<g>
	<path d="M8,0C3.6,0,0,3.6,0,8s3.6,8,8,8s8-3.6,8-8S12.4,0,8,0z M10.6,8.2l-3.9,2.2c-0.1,0.1-0.3,0-0.3-0.1c0,0,0-0.1,0-0.1V5.8
		c0-0.1,0.1-0.3,0.2-0.3c0,0,0.1,0,0.1,0l3.9,2.2C10.7,7.9,10.7,8,10.6,8.2C10.6,8.2,10.6,8.2,10.6,8.2z"/>
	<path d="M8,0C3.6,0,0,3.6,0,8s3.6,8,8,8s8-3.6,8-8S12.4,0,8,0z M10.6,8.2l-3.9,2.2c-0.1,0.1-0.3,0-0.3-0.1c0,0,0-0.1,0-0.1V5.8
		c0-0.1,0.1-0.3,0.2-0.3c0,0,0.1,0,0.1,0l3.9,2.2C10.7,7.9,10.7,8,10.6,8.2C10.6,8.2,10.6,8.2,10.6,8.2z"/>
</g>
</svg>
